<?xml version="1.0" encoding="utf-8"?>
<!-- Generator: Adobe Illustrator 27.7.0, SVG Export Plug-In . SVG Version: 6.00 Build 0)  -->
<svg version="1.1" id="Camada_1" xmlns="http://www.w3.org/2000/svg" xmlns:xlink="http://www.w3.org/1999/xlink" x="0px" y="0px"
	 viewBox="0 0 595.28 598.92" style="enable-background:new 0 0 595.28 598.92;" xml:space="preserve">
<style type="text/css">
	.st0{fill:#FFFFFF;}
</style>
<g>
	<path class="st0" d="M590.32,320.03c-28.7,0-57.41,0-86.11,0c-23.12,0-46.24,0.03-69.36-0.04c-2.41-0.01-3.86,0.29-4.59,3.07
		c-2.65,10.11-4.51,20.6-8.63,30.11c-23.72,54.72-72.38,80.2-121.9,82.29c-5.04,0.21-10.19-0.22-15.17-1.07
		c-8.94-1.52-17.93-3.05-26.63-5.52c-16.44-4.66-30.94-13.29-44.5-23.55c-11.31-9.67-21.23-20.56-29.33-33.08
		c-0.46-0.67-0.92-1.33-1.38-2c-2.19-4.06-4.38-8.12-6.58-12.19c0.07-0.3-0.01-0.55-0.25-0.74c-0.22-0.4-0.44-0.79-0.66-1.19
		c0.1-0.28,0.02-0.5-0.22-0.66c-0.28-0.62-0.56-1.24-0.84-1.85c-1.6-4.36-3.2-8.72-4.8-13.07c-0.23-0.31-0.46-0.63-0.69-0.94
		c-0.01-0.3-0.07-0.59-0.18-0.88c-0.24-0.64-0.49-1.27-0.73-1.91c-0.36-1.85-0.72-3.7-1.08-5.54c-0.33-0.94-0.66-1.88-1-2.82
		c0.01-0.61,0.02-1.22,0.03-1.82c-0.32-0.94-0.64-1.89-0.96-2.83c-0.25-1.39,1.79-3.99-1.88-3.6c-0.36,0.1-0.71,0.21-1.07,0.31
		c-0.52-0.11-1.04-0.21-1.56-0.31c-0.32,0-0.64,0.01-0.96,0.01c-12.72,0-25.44,0-38.17,0.01c-0.62-0.06-1.23-0.16-1.85-0.16
		c-38.61-0.01-77.22-0.01-115.84,0c-0.86,0-1.72,0.26-3.46,0.54c1.55,10.65,3.11,21.05,4.56,31.47c2.43,17.46,7.45,34.23,13.5,50.72
		c13.12,35.81,32.16,68.19,57.99,96.22c11.06,12,23.72,22.53,35.66,33.73c1.82,1.52,3.57,3.12,5.46,4.55
		c28.7,21.84,60.25,38.02,94.76,48.69c21.57,6.67,43.64,10.81,66.01,12.21c20.55,1.29,41.32,1.18,61.69-2.68
		c16.79-3.18,33.81-6.06,49.98-11.36c61.22-20.06,111.13-56.24,149.36-108.23c19.38-26.36,34-55.24,43.44-86.55
		c4.04-13.38,6.96-27.13,9.62-40.87c1.78-9.22,2.19-18.7,3.26-28.46C593.37,320.03,591.84,320.03,590.32,320.03z"/>
	<path class="st0" d="M7.68,281.02c35.95-0.05,71.9-0.11,107.85-0.16c0,0,0,0,0,0c2.49,0,4.99-0.01,7.48-0.01c13.9,0,27.8,0,41.77,0
		c2.43-14.91,6.18-29.11,13.73-41.67c6.82-11.36,15.18-21.79,22.86-32.63c4.19-3.66,8.01-7.89,12.64-10.86
		c11.22-7.18,22.83-13.77,34.28-20.59c-1.58,0.1-3.15,0.2-4.17,0.26c1.02-0.06,2.59-0.16,4.17-0.26c8.76-2.4,17.52-4.8,26.28-7.2
		c7.23-0.47,14.45-0.99,21.68-1.38c3.71-0.2,7.43-0.18,11.14-0.26c9.91,1.74,19.82,3.49,29.73,5.23
		c9.27,4.04,18.54,8.08,27.81,12.12c5.33,3.56,10.67,7.12,16,10.68c16.78,13.77,30.63,29.99,39.18,50.03
		c4.94,11.6,8.26,23.89,12.5,36.41c53.29,0,107.66,0,162.27,0c0-2.42,0.18-4.57-0.03-6.67c-2.02-20.39-5.68-40.45-11.68-60.08
		c-13.45-44.04-35.82-83-67.3-116.51c-10.03-10.68-21.62-19.9-32.49-29.79c0,0,0,0,0,0c-13.71-9.21-27.42-18.42-41.13-27.63
		c-10.52-5.03-21.04-10.06-31.57-15.09c-16.06-7.55-33.18-11.67-50.35-15.65c-1.88,0.24-3.76,0.49-5.68,0.74
		c1.92-0.25,3.8-0.49,5.68-0.74c-7.74-1.3-15.47-2.59-23.21-3.89c-12.41-0.88-24.83-1.76-37.24-2.64c-0.15,1.16-0.34,2.31-0.54,3.47
		c0.19-1.16,0.38-2.31,0.54-3.47c-10.85,0.6-21.7,1.19-32.56,1.79c-6.53,0.86-13.05,1.73-19.58,2.59
		c-15.56,3.93-31.12,7.86-46.68,11.79c-18.51,6.43-36.52,13.95-53.14,24.5c-1.11,0.47-2.34,0.77-3.31,1.45
		c-9.74,6.85-19.44,13.76-29.16,20.65c-1.89,1.34-3.88,2.55-5.66,4.03C48.47,120.82,12.46,186.01,2.13,265.3
		c-0.67,5.11-0.86,10.28-1.29,15.72C3.68,281.02,5.68,281.03,7.68,281.02z"/>
	<path class="st0" d="M264.49,218.6c-2.47,1.03-5.02,1.88-7.39,3.11c-8.85,4.58-16.58,10.66-23.41,17.91
		c-13.99,14.85-21.95,32.62-23.96,52.71c-1.79,17.89,2.52,34.86,11.21,50.6c5.54,10.03,12.56,18.89,21.95,25.67
		c13.98,11.56,29.96,18.28,48.1,19.35c16.75,0.99,32.88-1.67,47.82-9.7c38.86-20.88,54.51-61.42,43.77-102.9
		c-4.61-17.82-14.66-32.52-29.38-43.82c-10.32-9.73-23.44-13.61-36.57-17.46c-1.26-0.29-2.52-0.58-3.79-0.87
		c0,0-0.36-0.06-0.36-0.06c-11.72-1.93-23.36-1.42-34.95,0.99c-0.34,0.24-0.69,0.47-1.03,0.71c-0.89,0.08-1.78,0.15-2.67,0.23
		c-1.3,0.54-2.59,1.07-3.89,1.61c0.59,0.7,1.18,1.4,1.77,2.11c-0.59-0.7-1.18-1.4-1.77-2.11
		C268.12,217.32,266.3,217.96,264.49,218.6z"/>
</g>
</svg>
